<svg width="1280" height="720" xmlns="http://www.w3.org/2000/svg" xmlns:xlink="http://www.w3.org/1999/xlink" overflow="hidden"><defs><filter id="fx0" x="-10%" y="-10%" width="120%" height="120%" filterUnits="userSpaceOnUse" primitiveUnits="userSpaceOnUse"><feComponentTransfer color-interpolation-filters="sRGB"><feFuncR type="discrete" tableValues="0 0"/><feFuncG type="discrete" tableValues="0 0"/><feFuncB type="discrete" tableValues="0 0"/><feFuncA type="linear" slope="0.4" intercept="0"/></feComponentTransfer><feGaussianBlur stdDeviation="1.77778 1.77778"/></filter><filter id="fx1" x="-10%" y="-10%" width="120%" height="120%" filterUnits="userSpaceOnUse" primitiveUnits="userSpaceOnUse"><feComponentTransfer color-interpolation-filters="sRGB"><feFuncR type="discrete" tableValues="0 0"/><feFuncG type="discrete" tableValues="0 0"/><feFuncB type="discrete" tableValues="0 0"/><feFuncA type="linear" slope="0.4" intercept="0"/></feComponentTransfer><feGaussianBlur stdDeviation="1.77778 1.77778"/></filter><filter id="fx2" x="-10%" y="-10%" width="120%" height="120%" filterUnits="userSpaceOnUse" primitiveUnits="userSpaceOnUse"><feComponentTransfer color-interpolation-filters="sRGB"><feFuncR type="discrete" tableValues="0 0"/><feFuncG type="discrete" tableValues="0 0"/><feFuncB type="discrete" tableValues="0 0"/><feFuncA type="linear" slope="0.4" intercept="0"/></feComponentTransfer><feGaussianBlur stdDeviation="1.77778 1.77778"/></filter><filter id="fx3" x="-10%" y="-10%" width="120%" height="120%" filterUnits="userSpaceOnUse" primitiveUnits="userSpaceOnUse"><feComponentTransfer color-interpolation-filters="sRGB"><feFuncR type="discrete" tableValues="0 0"/><feFuncG type="discrete" tableValues="0 0"/><feFuncB type="discrete" tableValues="0 0"/><feFuncA type="linear" slope="0.4" intercept="0"/></feComponentTransfer><feGaussianBlur stdDeviation="1.77778 1.77778"/></filter><clipPath id="clip4"><rect x="0" y="0" width="1280" height="720"/></clipPath><clipPath id="clip5"><rect x="-2" y="-2" width="1072" height="500"/></clipPath><clipPath id="clip6"><rect x="0" y="0" width="1070" height="497"/></clipPath><clipPath id="clip7"><rect x="-2" y="-2" width="223" height="153"/></clipPath><clipPath id="clip8"><rect x="0" y="0" width="221" height="151"/></clipPath><clipPath id="clip9"><rect x="-2" y="-2" width="223" height="153"/></clipPath><clipPath id="clip10"><rect x="0" y="0" width="221" height="151"/></clipPath><clipPath id="clip11"><rect x="-2" y="-2" width="306" height="75"/></clipPath><clipPath id="clip12"><rect x="0" y="0" width="303" height="73"/></clipPath></defs><g clip-path="url(#clip4)"><rect x="0" y="0" width="1280" height="720" fill="#FFFFFF"/><rect x="197" y="0" width="1083" height="720" fill="#D9E7F7"/><g clip-path="url(#clip5)" filter="url(#fx0)" transform="translate(203 220)"><g clip-path="url(#clip6)"><path d="M6.82843 15.1653C6.82843 10.561 10.561 6.82843 15.1653 6.82843L1054.49 6.82843C1059.1 6.82843 1062.83 10.561 1062.83 15.1653L1062.83 481.492C1062.83 486.096 1059.1 489.828 1054.49 489.828L15.1653 489.828C10.561 489.828 6.82843 486.096 6.82843 481.492Z" fill="#FFFFFF" fill-rule="evenodd"/></g></g><path d="M207 232.337C207 227.733 210.733 224 215.337 224L1254.66 224C1259.27 224 1263 227.733 1263 232.337L1263 698.663C1263 703.267 1259.27 707 1254.66 707L215.337 707C210.733 707 207 703.267 207 698.663Z" fill="#FFFFFF" fill-rule="evenodd"/><rect x="0" y="0" width="197" height="720" fill="#173E7B"/><g clip-path="url(#clip7)" filter="url(#fx1)" transform="translate(836 56)"><g clip-path="url(#clip8)"><path d="M6.82843 9.19295C6.82843 7.88706 7.88706 6.82843 9.19295 6.82843L211.464 6.82843C212.77 6.82843 213.828 7.88706 213.828 9.19295L213.828 141.464C213.828 142.77 212.77 143.828 211.464 143.828L9.19295 143.828C7.88706 143.828 6.82843 142.77 6.82843 141.464Z" fill="#FFFFFF" fill-rule="evenodd"/></g></g><path d="M840 62.3645C840 61.0586 841.059 60 842.365 60L1044.64 60C1045.94 60 1047 61.0586 1047 62.3645L1047 194.635C1047 195.941 1045.94 197 1044.64 197L842.365 197C841.059 197 840 195.941 840 194.635Z" fill="#FFFFFF" fill-rule="evenodd"/><g clip-path="url(#clip9)" filter="url(#fx2)" transform="translate(1052 56)"><g clip-path="url(#clip10)"><path d="M6.82837 9.19295C6.82837 7.88706 7.887 6.82843 9.19289 6.82843L211.464 6.82843C212.77 6.82843 213.828 7.88706 213.828 9.19295L213.828 141.464C213.828 142.77 212.77 143.828 211.464 143.828L9.19289 143.828C7.887 143.828 6.82837 142.77 6.82837 141.464Z" fill="#FFFFFF" fill-rule="evenodd"/></g></g><path d="M1056 62.3645C1056 61.0586 1057.06 60 1058.36 60L1260.64 60C1261.94 60 1263 61.0586 1263 62.3645L1263 194.635C1263 195.941 1261.94 197 1260.64 197L1058.36 197C1057.06 197 1056 195.941 1056 194.635Z" fill="#FFFFFF" fill-rule="evenodd"/><g clip-path="url(#clip11)" filter="url(#fx3)" transform="translate(203 134)"><g clip-path="url(#clip12)"><path d="M6.82843 7.84676C6.82843 7.28435 7.28435 6.82843 7.84676 6.82843L294.81 6.82843C295.372 6.82843 295.828 7.28435 295.828 7.84676L295.828 64.8101C295.828 65.3725 295.372 65.8284 294.81 65.8284L7.84676 65.8284C7.28435 65.8284 6.82843 65.3725 6.82843 64.8101Z" fill="#FFFFFF" fill-rule="evenodd"/></g></g><path d="M207 139.018C207 138.456 207.456 138 208.018 138L494.982 138C495.544 138 496 138.456 496 139.018L496 195.982C496 196.544 495.544 197 494.982 197L208.018 197C207.456 197 207 196.544 207 195.982Z" fill="#FFFFFF" fill-rule="evenodd"/></g></svg>