<svg width="1280" height="720" xmlns="http://www.w3.org/2000/svg" xmlns:xlink="http://www.w3.org/1999/xlink" overflow="hidden"><defs><filter id="fx0" x="-10%" y="-10%" width="120%" height="120%" filterUnits="userSpaceOnUse" primitiveUnits="userSpaceOnUse"><feComponentTransfer color-interpolation-filters="sRGB"><feFuncR type="discrete" tableValues="0 0"/><feFuncG type="discrete" tableValues="0 0"/><feFuncB type="discrete" tableValues="0 0"/><feFuncA type="linear" slope="0.4" intercept="0"/></feComponentTransfer><feGaussianBlur stdDeviation="1.77778 1.77778"/></filter><filter id="fx1" x="-10%" y="-10%" width="120%" height="120%" filterUnits="userSpaceOnUse" primitiveUnits="userSpaceOnUse"><feComponentTransfer color-interpolation-filters="sRGB"><feFuncR type="discrete" tableValues="0 0"/><feFuncG type="discrete" tableValues="0 0"/><feFuncB type="discrete" tableValues="0 0"/><feFuncA type="linear" slope="0.4" intercept="0"/></feComponentTransfer><feGaussianBlur stdDeviation="1.77778 1.77778"/></filter><filter id="fx2" x="-10%" y="-10%" width="120%" height="120%" filterUnits="userSpaceOnUse" primitiveUnits="userSpaceOnUse"><feComponentTransfer color-interpolation-filters="sRGB"><feFuncR type="discrete" tableValues="0 0"/><feFuncG type="discrete" tableValues="0 0"/><feFuncB type="discrete" tableValues="0 0"/><feFuncA type="linear" slope="0.4" intercept="0"/></feComponentTransfer><feGaussianBlur stdDeviation="1.77778 1.77778"/></filter><filter id="fx3" x="-10%" y="-10%" width="120%" height="120%" filterUnits="userSpaceOnUse" primitiveUnits="userSpaceOnUse"><feComponentTransfer color-interpolation-filters="sRGB"><feFuncR type="discrete" tableValues="0 0"/><feFuncG type="discrete" tableValues="0 0"/><feFuncB type="discrete" tableValues="0 0"/><feFuncA type="linear" slope="0.4" intercept="0"/></feComponentTransfer><feGaussianBlur stdDeviation="1.77778 1.77778"/></filter><filter id="fx4" x="-10%" y="-10%" width="120%" height="120%" filterUnits="userSpaceOnUse" primitiveUnits="userSpaceOnUse"><feComponentTransfer color-interpolation-filters="sRGB"><feFuncR type="discrete" tableValues="0 0"/><feFuncG type="discrete" tableValues="0 0"/><feFuncB type="discrete" tableValues="0 0"/><feFuncA type="linear" slope="0.4" intercept="0"/></feComponentTransfer><feGaussianBlur stdDeviation="1.77778 1.77778"/></filter><filter id="fx5" x="-10%" y="-10%" width="120%" height="120%" filterUnits="userSpaceOnUse" primitiveUnits="userSpaceOnUse"><feComponentTransfer color-interpolation-filters="sRGB"><feFuncR type="discrete" tableValues="0 0"/><feFuncG type="discrete" tableValues="0 0"/><feFuncB type="discrete" tableValues="0 0"/><feFuncA type="linear" slope="0.4" intercept="0"/></feComponentTransfer><feGaussianBlur stdDeviation="1.77778 1.77778"/></filter><clipPath id="clip6"><rect x="0" y="0" width="1280" height="720"/></clipPath><clipPath id="clip7"><rect x="-2" y="-2" width="830" height="500"/></clipPath><clipPath id="clip8"><rect x="0" y="0" width="827" height="497"/></clipPath><clipPath id="clip9"><rect x="-2" y="-2" width="250" height="153"/></clipPath><clipPath id="clip10"><rect x="0" y="0" width="247" height="150"/></clipPath><clipPath id="clip11"><rect x="-2" y="-2" width="250" height="75"/></clipPath><clipPath id="clip12"><rect x="0" y="0" width="247" height="73"/></clipPath><clipPath id="clip13"><rect x="-2" y="-2" width="389" height="75"/></clipPath><clipPath id="clip14"><rect x="0" y="0" width="386" height="73"/></clipPath><clipPath id="clip15"><rect x="-2" y="-2" width="223" height="153"/></clipPath><clipPath id="clip16"><rect x="0" y="0" width="221" height="151"/></clipPath><clipPath id="clip17"><rect x="-2" y="-2" width="223" height="153"/></clipPath><clipPath id="clip18"><rect x="0" y="0" width="221" height="151"/></clipPath></defs><g clip-path="url(#clip6)"><rect x="0" y="0" width="1280" height="720" fill="#FFFFFF"/><rect x="197" y="0" width="1083" height="720" fill="#D9E7F7"/><g clip-path="url(#clip7)" filter="url(#fx0)" transform="translate(446 220)"><g clip-path="url(#clip8)"><path d="M6.82843 15.1647C6.82843 10.5607 10.5607 6.82843 15.1647 6.82843L811.492 6.82843C816.096 6.82843 819.828 10.5607 819.828 15.1647L819.828 481.492C819.828 486.096 816.096 489.828 811.492 489.828L15.1647 489.828C10.5607 489.828 6.82843 486.096 6.82843 481.492Z" fill="#FFFFFF" fill-rule="evenodd"/></g></g><path d="M450 232.336C450 227.732 453.732 224 458.336 224L1254.66 224C1259.27 224 1263 227.732 1263 232.336L1263 698.664C1263 703.268 1259.27 707 1254.66 707L458.336 707C453.732 707 450 703.268 450 698.664Z" fill="#FFFFFF" fill-rule="evenodd"/><g clip-path="url(#clip9)" filter="url(#fx1)" transform="translate(203 220)"><g clip-path="url(#clip10)"><path d="M6.82843 9.17576C6.82843 7.87936 7.87936 6.82843 9.17576 6.82843L237.481 6.82843C238.777 6.82843 239.828 7.87936 239.828 9.17576L239.828 140.481C239.828 141.777 238.777 142.828 237.481 142.828L9.17576 142.828C7.87936 142.828 6.82843 141.777 6.82843 140.481Z" fill="#FFFFFF" fill-rule="evenodd"/></g></g><path d="M207 226.347C207 225.051 208.051 224 209.347 224L437.653 224C438.949 224 440 225.051 440 226.347L440 357.653C440 358.949 438.949 360 437.653 360L209.347 360C208.051 360 207 358.949 207 357.653Z" fill="#FFFFFF" fill-rule="evenodd"/><g clip-path="url(#clip11)" filter="url(#fx2)" transform="translate(203 134)"><g clip-path="url(#clip12)"><path d="M6.82843 7.84666C6.82843 7.28431 7.28431 6.82843 7.84666 6.82843L238.81 6.82843C239.373 6.82843 239.828 7.28431 239.828 7.84666L239.828 64.8102C239.828 65.3726 239.373 65.8284 238.81 65.8284L7.84666 65.8284C7.28431 65.8284 6.82843 65.3726 6.82843 64.8102Z" fill="#FFFFFF" fill-rule="evenodd"/></g></g><path d="M207 139.018C207 138.456 207.456 138 208.018 138L438.982 138C439.544 138 440 138.456 440 139.018L440 195.982C440 196.544 439.544 197 438.982 197L208.018 197C207.456 197 207 196.544 207 195.982Z" fill="#FFFFFF" fill-rule="evenodd"/><g clip-path="url(#clip13)" filter="url(#fx3)" transform="translate(446 134)"><g clip-path="url(#clip14)"><path d="M6.82843 7.84672C6.82843 7.28433 7.28433 6.82843 7.84671 6.82843L377.81 6.82843C378.373 6.82843 378.828 7.28433 378.828 7.84672L378.828 64.8101C378.828 65.3725 378.373 65.8284 377.81 65.8284L7.84671 65.8284C7.28433 65.8284 6.82843 65.3725 6.82843 64.8101Z" fill="#FFFFFF" fill-rule="evenodd"/></g></g><path d="M450 139.018C450 138.456 450.456 138 451.018 138L820.982 138C821.544 138 822 138.456 822 139.018L822 195.982C822 196.544 821.544 197 820.982 197L451.018 197C450.456 197 450 196.544 450 195.982Z" fill="#FFFFFF" fill-rule="evenodd"/><rect x="0" y="0" width="197" height="720" fill="#173E7B"/><g clip-path="url(#clip15)" filter="url(#fx4)" transform="translate(836 56)"><g clip-path="url(#clip16)"><path d="M6.82843 9.19295C6.82843 7.88706 7.88706 6.82843 9.19295 6.82843L211.464 6.82843C212.77 6.82843 213.828 7.88706 213.828 9.19295L213.828 141.464C213.828 142.77 212.77 143.828 211.464 143.828L9.19295 143.828C7.88706 143.828 6.82843 142.77 6.82843 141.464Z" fill="#FFFFFF" fill-rule="evenodd"/></g></g><path d="M840 62.3645C840 61.0586 841.059 60 842.365 60L1044.64 60C1045.94 60 1047 61.0586 1047 62.3645L1047 194.635C1047 195.941 1045.94 197 1044.64 197L842.365 197C841.059 197 840 195.941 840 194.635Z" fill="#FFFFFF" fill-rule="evenodd"/><g clip-path="url(#clip17)" filter="url(#fx5)" transform="translate(1052 56)"><g clip-path="url(#clip18)"><path d="M6.82837 9.19295C6.82837 7.88706 7.887 6.82843 9.19289 6.82843L211.464 6.82843C212.77 6.82843 213.828 7.88706 213.828 9.19295L213.828 141.464C213.828 142.77 212.77 143.828 211.464 143.828L9.19289 143.828C7.887 143.828 6.82837 142.77 6.82837 141.464Z" fill="#FFFFFF" fill-rule="evenodd"/></g></g><path d="M1056 62.3645C1056 61.0586 1057.06 60 1058.36 60L1260.64 60C1261.94 60 1263 61.0586 1263 62.3645L1263 194.635C1263 195.941 1261.94 197 1260.64 197L1058.36 197C1057.06 197 1056 195.941 1056 194.635Z" fill="#FFFFFF" fill-rule="evenodd"/></g></svg>