<svg width="1280" height="720" xmlns="http://www.w3.org/2000/svg" xmlns:xlink="http://www.w3.org/1999/xlink" overflow="hidden"><defs><clipPath id="clip0"><rect x="0" y="0" width="1280" height="720"/></clipPath></defs><g clip-path="url(#clip0)"><rect x="0" y="0" width="1280" height="720" fill="#FFFFFF"/><rect x="0.500053" y="0.500053" width="1280" height="720" stroke="#2F528F" stroke-width="1.33333" stroke-miterlimit="8" fill="#252627"/><path d="M19.5001 25.9048C19.5001 20.1584 24.1584 15.5001 29.9047 15.5001L770.095 15.5001C775.842 15.5001 780.5 20.1584 780.5 25.9048L780.5 117.095C780.5 122.842 775.842 127.5 770.095 127.5L29.9047 127.5C24.1584 127.5 19.5001 122.842 19.5001 117.095Z" stroke="#2F528F" stroke-width="1.33333" stroke-miterlimit="8" fill="#FFF9FB" fill-rule="evenodd"/><path d="M19.5001 163.222C19.5001 155.091 26.0911 148.5 34.2215 148.5L765.779 148.5C773.909 148.5 780.5 155.091 780.5 163.222L780.5 450.779C780.5 458.909 773.909 465.5 765.779 465.5L34.2215 465.5C26.0911 465.5 19.5001 458.909 19.5001 450.779Z" stroke="#2F528F" stroke-width="1.33333" stroke-miterlimit="8" fill="#FFF9FB" fill-rule="evenodd"/><path d="M797.5 163.221C797.5 155.091 804.091 148.5 812.221 148.5L1246.78 148.5C1254.91 148.5 1261.5 155.091 1261.5 163.221L1261.5 450.779C1261.5 458.909 1254.91 465.5 1246.78 465.5L812.221 465.5C804.091 465.5 797.5 458.909 797.5 450.779Z" stroke="#2F528F" stroke-width="1.33333" stroke-miterlimit="8" fill="#FFF9FB" fill-rule="evenodd"/><path d="M19.5001 488.089C19.5001 482.241 24.2407 477.5 30.0886 477.5L426.911 477.5C432.759 477.5 437.5 482.241 437.5 488.089L437.5 694.911C437.5 700.759 432.759 705.5 426.911 705.5L30.0886 705.5C24.2407 705.5 19.5001 700.759 19.5001 694.911Z" stroke="#2F528F" stroke-width="1.33333" stroke-miterlimit="8" fill="#FFF9FB" fill-rule="evenodd"/><path d="M888.5 488.088C888.5 482.241 893.241 477.5 899.088 477.5L1250.91 477.5C1256.76 477.5 1261.5 482.241 1261.5 488.088L1261.5 694.912C1261.5 700.76 1256.76 705.5 1250.91 705.5L899.088 705.5C893.241 705.5 888.5 700.76 888.5 694.912Z" stroke="#2F528F" stroke-width="1.33333" stroke-miterlimit="8" fill="#FFF9FB" fill-rule="evenodd"/><path d="M797.5 27.6313C797.5 20.9314 802.931 15.5001 809.631 15.5001L1017.37 15.5001C1024.07 15.5001 1029.5 20.9314 1029.5 27.6313L1029.5 114.369C1029.5 121.069 1024.07 126.5 1017.37 126.5L809.631 126.5C802.931 126.5 797.5 121.069 797.5 114.369Z" stroke="#2F528F" stroke-width="1.33333" stroke-miterlimit="8" fill="#FFF9FB" fill-rule="evenodd"/><path d="M1038.5 25.8119C1038.5 20.1168 1043.12 15.5001 1048.81 15.5001L1251.19 15.5001C1256.88 15.5001 1261.5 20.1168 1261.5 25.8119L1261.5 116.188C1261.5 121.883 1256.88 126.5 1251.19 126.5L1048.81 126.5C1043.12 126.5 1038.5 121.883 1038.5 116.188Z" stroke="#2F528F" stroke-width="1.33333" stroke-miterlimit="8" fill="#FFF9FB" fill-rule="evenodd"/><path d="M456.5 488.088C456.5 482.241 461.241 477.5 467.088 477.5L858.912 477.5C864.76 477.5 869.5 482.241 869.5 488.088L869.5 694.912C869.5 700.76 864.76 705.5 858.912 705.5L467.088 705.5C461.241 705.5 456.5 700.76 456.5 694.912Z" stroke="#2F528F" stroke-width="1.33333" stroke-miterlimit="8" fill="#FFF9FB" fill-rule="evenodd"/></g></svg>